<svg id="Capa_1" enable-background="new 0 0 512 512" height="512" viewBox="0 0 512 512" width="512" xmlns="http://www.w3.org/2000/svg"><g><path d="m353.5 504.5 90-248.5-90-248.5h-67.5v497z" fill="#da4e38"/><path d="m458.5 7.5-90 248.5 90 248.5h30v-497z" fill="#8f363e"/><path d="m353.5 7.5v497h105v-497h-30l-22.5 30-22.5-30z" fill="#b5423b"/><path d="m383.5 7.5v151.843c0 8.284 6.716 15 15 15v195c0 8.284 6.716 15 15 15s15-6.716 15-15v-361.843z" fill="#da4e38"/><path d="m342.26 217.5h-34.56l7.92 58.99 33.24-8.92c11.13-2.99 18.87-13.08 18.87-24.6 0-14.07-11.41-25.47-25.47-25.47z" fill="#808080"/><path d="m307.7 217.5h-216.7l-44.96 110.4c-28.12 69.05 22.68 144.6 97.25 144.6h60.21l52.5-112.5v-44.49c0-13.58 9.11-25.46 22.22-28.98l37.27-10c.04-.01.09-.02.13-.04 13.04-3.57 22.11-15.43 22.11-28.96 0-16.59-13.45-30.03-30.03-30.03z" fill="#999"/><path d="m226 97.51-45 164.99h30c24.85 0 45-20.15 45-45v-37.5l45-82.49z" fill="#696969"/><path d="m256 75c-23.78 0-43.87 15.81-50.33 37.5h-64.34c-6.46-21.69-26.55-37.5-50.33-37.5h-50.33l50.33 105v37.5c0 24.85 20.15 45 45 45h45c24.85 0 45-20.15 45-45v-75.42c0-16.34 13.66-29.58 30-29.58l50.33-37.5z" fill="#808080"/><path d="m91 142.5v37.5c-26.45 0-48.32-19.56-51.96-45h-.54c-8.28 0-15-6.72-15-15s6.72-15 15-15c-8.28 0-15-6.72-15-15s6.72-15 15-15h2.17c11.89 0 22.87 3.95 31.67 10.62 8.8 6.66 15.44 16.04 18.66 26.88-8.28 0-15 6.72-15 15s6.72 15 15 15z" fill="#ccc"/><path d="m308.5 105c8.28 0 15-6.72 15-15s-6.72-15-15-15h-2.17c-23.79 0-43.88 15.81-50.33 37.5 3.88.11 7.47 1.64 10.16 4.11 2.8 2.56 4.63 6.13 4.82 10.16.41 8.62-6.46 15.73-14.98 15.73v37.5c26.45 0 48.32-19.56 51.96-45h.54c8.28 0 15-6.72 15-15s-6.72-15-15-15z" fill="#ccc"/><path d="m300.98 381.77c.41 8.62-6.46 15.73-14.98 15.73 8.28 0 15 6.72 15 15s-6.72 15-15 15v15c0 16.57-13.43 30-30 30v-.42l-30-37.5 30-37.5c0-16.34 13.24-29.58 29.58-29.58 8.07 0 15.02 6.21 15.4 14.27z" fill="#353535"/><path d="m203.5 307.5 22.5 164.58v.42h30v-112.5c0-28.99-23.5-52.5-52.5-52.5z" fill="#696969"/><path d="m226 472.08v.42h-22.5c-28.99 0-52.5-23.51-52.5-52.5v-60c0-28.99 23.51-52.5 52.5-52.5 12.43 0 22.5 23.51 22.5 52.5z" fill="#808080"/><path d="m173.5 232.5c-12.426 0-22.5-10.074-22.5-22.5v-30c0-12.426 10.074-22.5 22.5-22.5s22.5 10.074 22.5 22.5v30c0 12.426-10.073 22.5-22.5 22.5z" fill="#353535"/><circle cx="121" cy="180" r="7.5"/><circle cx="226" cy="180" r="7.5"/><circle cx="121" cy="180" r="7.5"/><circle cx="226" cy="180" r="7.5"/><path d="m488.5 0h-202.5c-4.142 0-7.5 3.358-7.5 7.5v60h-22.5c-24.443 0-46.562 15.164-55.632 37.499h-53.735c-9.071-22.335-31.19-37.499-55.633-37.499h-52.5c-12.407 0-22.5 10.093-22.5 22.5 0 5.757 2.173 11.017 5.743 15-3.57 3.983-5.743 9.243-5.743 15 0 10.408 7.103 19.188 16.717 21.747 5.879 24.032 26.315 42.159 50.783 45.275v29.01l-44.405 109.037c-14.15 34.747-10.099 74.079 10.838 105.211 20.937 31.133 55.836 49.72 93.354 49.72h112.713c8.436 0 16.228-2.801 22.5-7.52v32.02c0 4.142 3.358 7.5 7.5 7.5h202.5c4.142 0 7.5-3.358 7.5-7.5v-497c0-4.142-3.358-7.5-7.5-7.5zm-195 15h52.5v195.219c-1.229-.14-2.477-.219-3.743-.219h-48.757v-35.783c10.096-8.111 17.59-19.417 20.783-32.471 9.614-2.558 16.717-11.338 16.717-21.746 0-5.757-2.173-11.017-5.743-15 3.57-3.983 5.743-9.243 5.743-15 0-12.407-10.093-22.5-22.5-22.5h-15zm-30 172.021c5.218-.664 10.251-2.013 15-3.955v26.934h-15zm-217.034-53.083c-.529-3.694-3.693-6.438-7.424-6.438h-.542c-4.136 0-7.5-3.364-7.5-7.5s3.364-7.5 7.5-7.5c4.142 0 7.5-3.358 7.5-7.5s-3.358-7.5-7.5-7.5c-4.136 0-7.5-3.364-7.5-7.5s3.364-7.5 7.5-7.5h52.5c19.767 0 37.505 13.216 43.137 32.138.947 3.18 3.871 5.36 7.188 5.36h64.349c3.318 0 6.242-2.181 7.188-5.36 5.633-18.922 23.371-32.138 43.138-32.138h52.5c4.136 0 7.5 3.364 7.5 7.5s-3.364 7.5-7.5 7.5c-4.142 0-7.5 3.358-7.5 7.5s3.358 7.5 7.5 7.5c4.136 0 7.5 3.364 7.5 7.5s-3.364 7.5-7.5 7.5h-.542c-3.731 0-6.896 2.744-7.424 6.438-2.786 19.466-18.118 34.683-37.034 37.917v-23.139c8.73-3.095 15-11.437 15-21.215 0-12.407-10.093-22.5-22.5-22.5-4.142 0-7.5 3.358-7.5 7.5s3.358 7.5 7.5 7.5c4.136 0 7.5 3.364 7.5 7.5s-3.364 7.5-7.5 7.5c-4.142 0-7.5 3.358-7.5 7.5v75c0 20.678-16.822 37.5-37.5 37.5h-75c-20.678 0-37.5-16.822-37.5-37.5v-75c0-4.142-3.358-7.5-7.5-7.5-4.136 0-7.5-3.364-7.5-7.5s3.364-7.5 7.5-7.5c4.142 0 7.5-3.358 7.5-7.5s-3.358-7.501-7.5-7.501c-12.407 0-22.5 10.093-22.5 22.5 0 9.778 6.27 18.12 15 21.215v23.139c-18.916-3.233-34.248-18.451-37.034-37.916zm96.821 331.062c-32.516 0-62.761-16.108-80.906-43.09-18.146-26.982-21.657-61.069-9.393-91.184l36.339-89.233c8.729 16.911 26.367 28.507 46.673 28.507h75c26.402 0 48.304-19.593 51.956-45h79.302c9.908 0 17.968 8.061 17.968 17.968 0 8.113-5.473 15.25-13.308 17.354l-70.642 18.968c-16.354 4.391-27.775 19.284-27.775 36.217v4.87c-11.004-12.481-27.093-20.377-45.001-20.377-33.084 0-60 26.916-60 60v60c0 17.908 7.896 33.997 20.377 45zm120.213-149.493c0-9.574 6.088-18.056 15-21.208v66.385c-5.535 1.074-10.635 3.379-15 6.624zm-105 104.493v-60c0-24.813 20.187-45 45-45s45 20.187 45 45v105h-45c-24.813 0-45-20.187-45-45zm105 43.71v-66.634c0-12.173 9.903-22.076 22.076-22.076 4.179 0 7.73 3.197 7.915 7.128.098 2.08-.635 4.05-2.063 5.547-1.43 1.499-3.358 2.325-5.428 2.325-4.142 0-7.5 3.358-7.5 7.5s3.358 7.5 7.5 7.5c4.136 0 7.5 3.364 7.5 7.5s-3.364 7.5-7.5 7.5c-4.142 0-7.5 3.358-7.5 7.5v15c0 9.778-6.271 18.114-15 21.21zm30-29.995c8.73-3.095 15-11.437 15-21.215 0-5.753-2.17-11.009-5.736-14.992 3.969-4.423 5.992-10.107 5.71-16.086-.437-9.285-6.556-16.993-14.975-20.025v-71.201l52.5-14.097v166.401c0 4.142 3.358 7.5 7.5 7.5s7.5-3.358 7.5-7.5v-172.422c8.707-6.034 14.225-16.077 14.225-27.109 0-11.22-5.638-21.143-14.225-27.1v-200.869h15v144.343c0 9.778 6.27 18.12 15 21.215v188.785c0 12.407 10.093 22.5 22.5 22.5s22.5-10.093 22.5-22.5v-301.843c0-4.142-3.358-7.5-7.5-7.5s-7.5 3.358-7.5 7.5v301.843c0 4.136-3.364 7.5-7.5 7.5s-7.5-3.364-7.5-7.5v-195c0-4.142-3.358-7.5-7.5-7.5-4.136 0-7.5-3.364-7.5-7.5v-144.343h30v22.5c0 4.142 3.358 7.5 7.5 7.5s7.5-3.358 7.5-7.5v-22.5h15v482h-90v-24.5c0-4.142-3.358-7.5-7.5-7.5s-7.5 3.358-7.5 7.5v24.5h-52.5v-63.285zm187.5 63.285h-15v-482h15z"/><path d="m173.5 240c16.542 0 30-13.458 30-30v-30c0-16.542-13.458-30-30-30s-30 13.458-30 30v30c0 16.542 13.458 30 30 30zm-15-60c0-8.271 6.729-15 15-15s15 6.729 15 15v30c0 8.271-6.729 15-15 15s-15-6.729-15-15z"/><path d="m68.5 352.5c-4.142 0-7.5 3.358-7.5 7.5v15c0 4.142 3.358 7.5 7.5 7.5s7.5-3.358 7.5-7.5v-15c0-4.142-3.358-7.5-7.5-7.5z"/><path d="m98.5 382.5c-4.142 0-7.5 3.358-7.5 7.5v15c0 4.142 3.358 7.5 7.5 7.5s7.5-3.358 7.5-7.5v-15c0-4.142-3.358-7.5-7.5-7.5z"/><path d="m98.5 322.5c-4.142 0-7.5 3.358-7.5 7.5v15c0 4.142 3.358 7.5 7.5 7.5s7.5-3.358 7.5-7.5v-15c0-4.142-3.358-7.5-7.5-7.5z"/></g></svg>